<?xml version="1.0" encoding="utf-8"?>
<!-- Generator: Adobe Illustrator 26.0.1, SVG Export Plug-In . SVG Version: 6.00 Build 0)  -->
<svg version="1.1" id="Layer_1" xmlns="http://www.w3.org/2000/svg" xmlns:xlink="http://www.w3.org/1999/xlink" x="0px" y="0px"
	 viewBox="0 0 150 136.1" style="enable-background:new 0 0 150 136.1;" xml:space="preserve">
<style type="text/css">
	.st0{fill:#F25D49;}
	.st1{fill:#4962F2;}
	.st2{fill:#CC9047;}
	.st3{fill:#C34881;}
</style>
<rect x="73" y="88" width="4" height="8"/>
<rect x="73" y="40" width="4" height="8"/>
<rect x="47" y="66" width="8" height="4"/>
<rect x="95" y="66" width="8" height="4"/>
<rect x="90" y="81" transform="matrix(0.7071 -0.7071 0.7071 0.7071 -33.1742 89.9246)" width="4" height="8"/>
<rect x="56" y="47.1" transform="matrix(0.7071 -0.7071 0.7071 0.7071 -19.1153 55.9857)" width="4" height="8"/>
<rect x="54" y="83" transform="matrix(0.7071 -0.7071 0.7071 0.7071 -43.1142 65.9316)" width="8" height="4"/>
<rect x="88" y="49.1" transform="matrix(0.7071 -0.7071 0.7071 0.7071 -9.1753 79.9904)" width="8" height="4"/>
<path class="st0" d="M100.5,136c-7.2,0-15.4-2.8-24-8.2c-13.4-8.5-26.2-22.7-36.1-39.8S24.6,52.7,23.9,36.8
	C23.2,20.5,28,8.6,37.5,3.1s22.2-3.6,36,5.1c13.4,8.5,26.2,22.7,36.1,39.8s15.8,35.3,16.4,51.2c0.7,16.3-4.1,28.3-13.6,33.8
	C108.8,135,104.7,136.1,100.5,136z M49.6,4c-3.5-0.1-7,0.8-10,2.6C31.4,11.3,27.3,22,28,36.7c0.7,15.2,6.3,32.7,15.9,49.3
	s21.9,30.3,34.8,38.5c12.4,7.9,23.8,9.7,31.9,5c8.1-4.7,12.2-15.4,11.6-30.1c-0.7-15.2-6.3-32.7-15.9-49.3s-22-30.3-34.8-38.5
	C63.5,6.6,56,4,49.6,4z"/>
<path class="st1" d="M49.5,136c-4.2,0.1-8.3-1-12-3.1C28,127.5,23.2,115.5,24,99.2c0.7-15.8,6.5-34,16.4-51.2S63.2,16.8,76.5,8.2
	c13.8-8.8,26.6-10.6,36-5.1s14.3,17.4,13.6,33.8c-0.7,15.8-6.5,34-16.4,51.2s-22.7,31.3-36.1,39.8C65,133.3,56.8,136.1,49.5,136
	L49.5,136z M100.4,4C94,4,86.6,6.6,78.6,11.6C65.8,19.8,53.4,33.5,43.9,50S28.6,84.2,27.9,99.4c-0.7,14.7,3.5,25.4,11.6,30.1
	c8.1,4.7,19.4,2.9,31.9-5.1c12.8-8.2,25.2-21.9,34.8-38.5s15.2-34.1,15.9-49.3c0.6-14.7-3.4-25.4-11.6-30.1C107.4,4.8,104,4,100.4,4
	z"/>
<path class="st2" d="M75,108c-19.8,0-38.5-4-52.5-11.3C8,89.1,0,79,0,68S8,47,22.5,39.4C36.5,32.1,55.2,28,75,28s38.5,4,52.5,11.3
	C142,47,150,57.1,150,68s-8,21.1-22.5,28.6C113.5,104,94.8,108,75,108z M75,32C35.8,32,4,48.2,4,68s31.8,36,71,36s71-16.1,71-36
	S114.1,32,75,32z"/>
<circle class="st3" cx="75" cy="68" r="15"/>
<path d="M75,85c-9.4,0-17-7.6-17-17s7.6-17,17-17s17,7.6,17,17S84.4,85,75,85z M75,55c-7.2,0-13,5.8-13,13s5.8,13,13,13
	s13-5.8,13-13S82.2,55,75,55z"/>
</svg>
